# xmcd
#
# Track frame offsets:
#	150
#	15446
#	31373
#	46553
#	63416
#	77060
#	94172
#	108859
#	122919
#	140803
#	153750
#	168897
#
# Disc length: 2481 seconds
#
# Revision: 1
# Processed by: cddbd v1.5.2PL0 Copyright (c) Steve Scherf et al.
# Submitted via: audiograbber 1.83.01
#
DISCID=8b09af0c
DTITLE=Home Free - Dive Bar Saints
DYEAR=2019
DGENRE=Country
TTITLE0=Remember This
TTITLE1=Leave This Town
TTITLE2=Dive Bar Saints
TTITLE3=Catch Me If You Can
TTITLE4=Lonely Girl's World
TTITLE5=Cross That Bridge
TTITLE6=Dreamer
TTITLE7=What's The World Coming To?
TTITLE8=Go Rest High On That Mountain
TTITLE9=Why Not
TTITLE10=Love Me Like That
TTITLE11=Take Me Home, Country Roads
EXTD=
EXTT0=
EXTT1=
EXTT2=
EXTT3=
EXTT4=
EXTT5=
EXTT6=
EXTT7=
EXTT8=
EXTT9=
EXTT10=
EXTT11=
PLAYORDER=
